<mxfile host="app.diagrams.net" modified="2023-03-08T20:40:07.166Z" agent="5.0 (Windows)" etag="a0-TcYKNGU5AR_tYky7a" version="21.0.2" type="github">
  <diagram name="Page-1" id="Xd1cMqrH2tlCXthwi0Es">
    <mxGraphModel dx="1050" dy="558" grid="1" gridSize="10" guides="1" tooltips="1" connect="1" arrows="1" fold="1" page="1" pageScale="1" pageWidth="827" pageHeight="1169" math="0" shadow="0">
      <root>
        <mxCell id="0" />
        <mxCell id="1" parent="0" />
        <mxCell id="opwTgjGISmNo6KvwqeTO-1" value="Jugador" style="shape=umlActor;verticalLabelPosition=bottom;verticalAlign=top;html=1;outlineConnect=0;" parent="1" vertex="1">
          <mxGeometry x="380" y="630" width="30" height="60" as="geometry" />
        </mxCell>
        <mxCell id="opwTgjGISmNo6KvwqeTO-5" value="Controlar Ángel" style="ellipse;whiteSpace=wrap;html=1;" parent="1" vertex="1">
          <mxGeometry x="160" y="520" width="140" height="70" as="geometry" />
        </mxCell>
        <mxCell id="opwTgjGISmNo6KvwqeTO-6" value="Controlar Demonio" style="ellipse;whiteSpace=wrap;html=1;" parent="1" vertex="1">
          <mxGeometry x="500" y="510" width="140" height="70" as="geometry" />
        </mxCell>
        <mxCell id="opwTgjGISmNo6KvwqeTO-7" value="Probar Fe" style="ellipse;whiteSpace=wrap;html=1;" parent="1" vertex="1">
          <mxGeometry x="160" y="380" width="140" height="70" as="geometry" />
        </mxCell>
        <mxCell id="opwTgjGISmNo6KvwqeTO-8" value="&lt;div&gt;Seducir&lt;/div&gt;&lt;div&gt;Humano&lt;br&gt;&lt;/div&gt;" style="ellipse;whiteSpace=wrap;html=1;" parent="1" vertex="1">
          <mxGeometry x="500" y="380" width="140" height="70" as="geometry" />
        </mxCell>
        <mxCell id="opwTgjGISmNo6KvwqeTO-9" value="&lt;div&gt;Probar&lt;/div&gt;&lt;div&gt;Voluntad&lt;br&gt;&lt;/div&gt;" style="ellipse;whiteSpace=wrap;html=1;" parent="1" vertex="1">
          <mxGeometry x="325" y="270" width="140" height="70" as="geometry" />
        </mxCell>
        <mxCell id="opwTgjGISmNo6KvwqeTO-10" value="include" style="html=1;verticalAlign=bottom;endArrow=open;dashed=1;endSize=8;edgeStyle=elbowEdgeStyle;elbow=vertical;curved=0;rounded=0;exitX=0.5;exitY=0;exitDx=0;exitDy=0;entryX=0.5;entryY=1;entryDx=0;entryDy=0;" parent="1" source="opwTgjGISmNo6KvwqeTO-5" target="opwTgjGISmNo6KvwqeTO-7" edge="1">
          <mxGeometry relative="1" as="geometry">
            <mxPoint x="460" y="560" as="sourcePoint" />
            <mxPoint x="380" y="560" as="targetPoint" />
          </mxGeometry>
        </mxCell>
        <mxCell id="opwTgjGISmNo6KvwqeTO-11" value="include" style="html=1;verticalAlign=bottom;endArrow=open;dashed=1;endSize=8;edgeStyle=elbowEdgeStyle;elbow=vertical;curved=0;rounded=0;exitX=0.5;exitY=0;exitDx=0;exitDy=0;" parent="1" edge="1">
          <mxGeometry relative="1" as="geometry">
            <mxPoint x="569.5" y="510" as="sourcePoint" />
            <mxPoint x="570" y="450" as="targetPoint" />
          </mxGeometry>
        </mxCell>
        <mxCell id="opwTgjGISmNo6KvwqeTO-12" value="" style="html=1;verticalAlign=bottom;endArrow=block;edgeStyle=elbowEdgeStyle;elbow=vertical;curved=0;rounded=0;exitX=0;exitY=0.3333333333333333;exitDx=0;exitDy=0;exitPerimeter=0;entryX=0.5;entryY=1;entryDx=0;entryDy=0;" parent="1" source="opwTgjGISmNo6KvwqeTO-1" target="opwTgjGISmNo6KvwqeTO-5" edge="1">
          <mxGeometry width="80" relative="1" as="geometry">
            <mxPoint x="380" y="560" as="sourcePoint" />
            <mxPoint x="460" y="560" as="targetPoint" />
          </mxGeometry>
        </mxCell>
        <mxCell id="opwTgjGISmNo6KvwqeTO-13" value="" style="html=1;verticalAlign=bottom;endArrow=block;edgeStyle=elbowEdgeStyle;elbow=vertical;curved=0;rounded=0;exitX=1;exitY=0.3333333333333333;exitDx=0;exitDy=0;exitPerimeter=0;entryX=0.55;entryY=1.029;entryDx=0;entryDy=0;entryPerimeter=0;" parent="1" source="opwTgjGISmNo6KvwqeTO-1" target="opwTgjGISmNo6KvwqeTO-6" edge="1">
          <mxGeometry width="80" relative="1" as="geometry">
            <mxPoint x="390" y="660" as="sourcePoint" />
            <mxPoint x="240" y="600" as="targetPoint" />
          </mxGeometry>
        </mxCell>
        <mxCell id="opwTgjGISmNo6KvwqeTO-14" value="extend" style="html=1;verticalAlign=bottom;endArrow=open;dashed=1;endSize=8;edgeStyle=elbowEdgeStyle;elbow=vertical;curved=0;rounded=0;exitX=0.5;exitY=1;exitDx=0;exitDy=0;entryX=0;entryY=0;entryDx=0;entryDy=0;" parent="1" source="O63PeWsgmOvpQ6TLEJFJ-1" target="opwTgjGISmNo6KvwqeTO-9" edge="1">
          <mxGeometry relative="1" as="geometry">
            <mxPoint x="360" y="430" as="sourcePoint" />
            <mxPoint x="360" y="360" as="targetPoint" />
          </mxGeometry>
        </mxCell>
        <mxCell id="opwTgjGISmNo6KvwqeTO-15" value="extend" style="html=1;verticalAlign=bottom;endArrow=open;dashed=1;endSize=8;edgeStyle=elbowEdgeStyle;elbow=vertical;curved=0;rounded=0;exitX=0.343;exitY=1;exitDx=0;exitDy=0;entryX=1;entryY=0;entryDx=0;entryDy=0;exitPerimeter=0;" parent="1" source="O63PeWsgmOvpQ6TLEJFJ-2" target="opwTgjGISmNo6KvwqeTO-9" edge="1">
          <mxGeometry relative="1" as="geometry">
            <mxPoint x="335" y="315" as="sourcePoint" />
            <mxPoint x="240" y="390" as="targetPoint" />
          </mxGeometry>
        </mxCell>
        <mxCell id="O63PeWsgmOvpQ6TLEJFJ-1" value="&lt;div&gt;Aumentar&lt;/div&gt;&lt;div&gt;Virtud&lt;br&gt;&lt;/div&gt;" style="ellipse;whiteSpace=wrap;html=1;" vertex="1" parent="1">
          <mxGeometry x="200" y="140" width="140" height="70" as="geometry" />
        </mxCell>
        <mxCell id="O63PeWsgmOvpQ6TLEJFJ-2" value="&lt;div&gt;Aumentar&lt;/div&gt;&lt;div&gt;Condena&lt;br&gt;&lt;/div&gt;" style="ellipse;whiteSpace=wrap;html=1;" vertex="1" parent="1">
          <mxGeometry x="450" y="140" width="140" height="70" as="geometry" />
        </mxCell>
        <mxCell id="O63PeWsgmOvpQ6TLEJFJ-3" value="" style="html=1;verticalAlign=bottom;endArrow=block;endSize=8;edgeStyle=elbowEdgeStyle;elbow=vertical;curved=0;rounded=0;exitX=1;exitY=0;exitDx=0;exitDy=0;entryX=0.5;entryY=1;entryDx=0;entryDy=0;endFill=0;" edge="1" parent="1" source="opwTgjGISmNo6KvwqeTO-7">
          <mxGeometry relative="1" as="geometry">
            <mxPoint x="340" y="400" as="sourcePoint" />
            <mxPoint x="340" y="330" as="targetPoint" />
          </mxGeometry>
        </mxCell>
        <mxCell id="O63PeWsgmOvpQ6TLEJFJ-6" value="" style="html=1;verticalAlign=bottom;endArrow=block;endSize=8;edgeStyle=elbowEdgeStyle;elbow=vertical;curved=0;rounded=0;exitX=0.5;exitY=0;exitDx=0;exitDy=0;entryX=0.929;entryY=0.857;entryDx=0;entryDy=0;endFill=0;entryPerimeter=0;" edge="1" parent="1" source="opwTgjGISmNo6KvwqeTO-8" target="opwTgjGISmNo6KvwqeTO-9">
          <mxGeometry relative="1" as="geometry">
            <mxPoint x="289" y="400" as="sourcePoint" />
            <mxPoint x="350" y="340" as="targetPoint" />
          </mxGeometry>
        </mxCell>
      </root>
    </mxGraphModel>
  </diagram>
</mxfile>
